<svg width="24" height="24" viewBox="0 0 24 24" fill="none" xmlns="http://www.w3.org/2000/svg" data-testid="checked" class="sc-fDwvOK iekeUw"><path fill-rule="evenodd" clip-rule="evenodd" d="M19 5H5v14h14V5zM5 3a2 2 0 00-2 2v14a2 2 0 002 2h14a2 2 0 002-2V5a2 2 0 00-2-2H5z" fill="#816bff"></path><path fill-rule="evenodd" clip-rule="evenodd" d="M17.625 7.95c.431.356.5 1.004.156 1.449l-6 7.725a.991.991 0 01-.726.385.984.984 0 01-.762-.3l-3.5-3.605a1.052 1.052 0 010-1.457.98.98 0 011.414 0l2.71 2.791 5.302-6.826a.98.98 0 011.406-.161z" fill="#816bff"></path></svg>