<svg width="24" height="24" viewBox="0 0 24 24" fill="none" xmlns="http://www.w3.org/2000/svg" class="sc-jonzHS cKJGyv"><path fill-rule="evenodd" clip-rule="evenodd" d="M23.582 4.32L12 11.238.412 4.32A1.17 1.17 0 000 5.203v13.594c0 .351.166.665.418.883L12 12.767l11.9 7.227h.1V5.204a1.17 1.17 0 00-.418-.884z" fill="#E2E2E2"></path><path fill-rule="evenodd" clip-rule="evenodd" d="M1.281 20h22.62l-8.078-8.002H8.177l-7.76 7.686c.232.198.53.316.864.316z" fill="#D0D0D0"></path><path fill-rule="evenodd" clip-rule="evenodd" d="M1.281 4a1.35 1.35 0 00-.87.32l10.704 10.55a1.259 1.259 0 001.764 0L23.581 4.32A1.333 1.333 0 0022.72 4H1.281z" fill="#EEE"></path></svg>