<svg width="24" height="24" viewBox="0 0 24 24" fill="none" xmlns="http://www.w3.org/2000/svg" tabindex="-1" class="sc-jDDxOa bztnse"><path fill-rule="evenodd" clip-rule="evenodd" d="M12 19.8a7.8 7.8 0 100-15.6 7.8 7.8 0 000 15.6zm0 1.2a9 9 0 100-18 9 9 0 000 18z" fill="#8a8a8a"></path><path fill-rule="evenodd" clip-rule="evenodd" d="M9.026 8.176a.6.6 0 10-.85.85L11.15 12l-2.974 2.974a.6.6 0 00.85.85L12 12.85l2.974 2.974a.6.6 0 10.85-.85L12.85 12l2.974-2.974a.6.6 0 10-.85-.85L12 11.15 9.026 8.176z" fill="#8a8a8a"></path></svg>