<svg width="24" height="24" viewBox="0 0 24 24" fill="none" xmlns="http://www.w3.org/2000/svg" class="sc-jonzHS cKJGyv"><path fill-rule="evenodd" clip-rule="evenodd" d="M24 21.96c0 1.14-.9 2.04-2.04 2.04H2.04C.96 24 0 23.04 0 21.96V2.04C0 .96.96 0 2.04 0H21.9c1.2 0 2.1.96 2.1 2.04v19.92z" fill="#F5F5F5"></path><path fill-rule="evenodd" clip-rule="evenodd" d="M12 8.32c1.127 0 1.887.487 2.32.894l1.694-1.654C14.974 6.593 13.62 6 12 6a5.995 5.995 0 00-5.36 3.307l1.94 1.506C9.066 9.367 10.413 8.32 12 8.32z" fill="#EA4335"></path><path fill-rule="evenodd" clip-rule="evenodd" d="M17.76 12.133c0-.493-.04-.854-.127-1.227H12v2.227h3.307c-.067.553-.427 1.386-1.227 1.947l1.894 1.467c1.133-1.047 1.786-2.587 1.786-4.414z" fill="#4285F4"></path><path fill-rule="evenodd" clip-rule="evenodd" d="M8.587 13.187a3.687 3.687 0 01-.2-1.188c0-.413.073-.813.193-1.187L6.64 9.308A6 6 0 006 11.999c0 .967.233 1.88.64 2.694l1.947-1.506z" fill="#FBBC05"></path><path fill-rule="evenodd" clip-rule="evenodd" d="M12 18c1.62 0 2.98-.533 3.974-1.453L14.08 15.08c-.507.354-1.186.6-2.08.6-1.587 0-2.933-1.047-3.413-2.493l-1.941 1.506A5.987 5.987 0 0012 18z" fill="#34A853"></path></svg>