<svg width="24" height="24" viewBox="0 0 24 24" fill="none" xmlns="http://www.w3.org/2000/svg" class="sc-kZPSHH bUnxFD"><path fill-rule="evenodd" clip-rule="evenodd" d="M10.405 3.588A1 1 0 0111.316 3c.907 0 1.78.354 2.426.99a3.38 3.38 0 011.013 2.41v2.2h3.596a2.648 2.648 0 012 .888 2.593 2.593 0 01.619 2.104l-1.122 7.2a2.596 2.596 0 01-.901 1.594 2.642 2.642 0 01-1.718.614H5.626a2.64 2.64 0 01-1.851-.756A2.587 2.587 0 013 18.4v-5.6c0-.695.28-1.358.775-1.844a2.64 2.64 0 011.85-.756H7.42l2.986-6.612zM7.065 12.2h-1.44a.64.64 0 00-.447.181A.587.587 0 005 12.8v5.6c0 .154.062.305.178.419a.639.639 0 00.448.18h1.438V12.2zm2 6.8h8.18a.642.642 0 00.419-.148.594.594 0 00.207-.364l1.122-7.2a.578.578 0 00-.141-.476.649.649 0 00-.485-.212h-4.612a1 1 0 01-1-1V6.4c0-.366-.148-.72-.416-.984a1.441 1.441 0 00-.433-.293l-2.842 6.292V19z" fill="#000"></path></svg>